#!OML:ASF F:\VICON\USERDATA\INSTALL\rory3\rory3.ASF
:FULLY-SPECIFIED
:DEGREES
73
root 0.7537500064894498 17.907638577866305 38.97887946721093 2.7667038030193583 1.199873032913098 0.8108871422368451
lfemur -7.3667221631967745 0.9093573238187558 -23.11143681360005
ltibia 31.024714526927646
lfoot 2.466544327564373 -10.78904690858832
ltoes -7.315529168539474
rfemur -31.91545434061318 2.448582040810567 23.99124807549939
rtibia 55.51427429819158
rfoot -2.6073674029872764 -4.272886983424583
rtoes 2.3092085932487807
lowerback 12.307244342915464 -0.5717029198861492 -1.6969995060462815
upperback -1.0215278636577512 -0.33209014095201317 1.44521542096637
thorax -8.400172260230377 0.0468212201763073 1.842738155826727
lowerneck -19.398869150306524 -3.237285723380571 -1.9229526425944228
upperneck 10.603631901408932 -4.806067154161113 2.950079416491695
head 6.541617157346794 -2.1472683762687326 0.829252611477012
lclavicle 4.2874894013840705e-15 5.758947334063212e-17
lhumerus -43.5760491570601 -13.819418629900168 96.1507850454039
lradius 110.18084647248124
lwrist 28.675475731506356
lhand -29.25979254574144 2.8598997211680017
lfingers 7.125019999999998
lthumb -3.08674409464538 32.566548475780365
rclavicle 4.287456057901627e-15 5.756553917791964e-17
rhumerus -52.05042034165055 13.487375727207398 -100.58618681504895
rradius 104.9160081202831
rwrist -9.190469674286954
rhand -20.503841674688022 36.48965310958955
rfingers 7.125019999999998
rthumb 5.835856343772376 6.56487649586562
74
root 0.8188310102860239 18.03635832078794 40.03635463401096 2.9785613014542163 0.584042946279735 0.7431747134107418
lfemur -8.432526061121878 1.060438110693246 -23.119635124550488
ltibia 33.36096266391088
lfoot 2.323404552767872 -10.590560881870655
ltoes -6.45022431151686
rfemur -30.423494623773625 3.0628725683791513 24.471127788834863
rtibia 49.892086621067946
rfoot -3.3959013393708806 -3.9306500103236317
rtoes 1.9246526425493005
lowerback 12.11031232794822 -0.6500019229377287 -1.5884604362189279
upperback -1.079443834158138 -0.382384636450539 1.5680311170372554
thorax -8.442616478044492 -0.019825598206979267 1.8209183041822465
lowerneck -19.3835165589955 -3.1898088067536507 -1.9205518106330308
upperneck 10.576582197858531 -4.8822062446521155 2.9305055052304345
head 6.542532809961905 -2.1531579885465666 0.8161403115279002
lclavicle 4.2874894013840705e-15 5.758947334063212e-17
lhumerus -43.12125967867125 -13.919693635821442 96.29133550844723
lradius 110.05506886033369
lwrist 28.764375943208655
lhand -29.339148574883904 2.8150548594642686
lfingers 7.125019999999998
lthumb -3.050206826410781 32.69787074943662
rclavicle 4.287456057901627e-15 5.756553917791964e-17
rhumerus -52.646322984470075 13.30736616452525 -100.25665711658499
rradius 104.90728784465739
rwrist -9.044549645030422
rhand -20.50934998245049 36.51915900453041
rfingers 7.125019999999998
rthumb 5.931157103482886 6.624639251246547
75
root 0.8885090572931973 18.15087865548085 41.196405226465686 3.1712767390743264 0.15533711807984873 0.6857772277920824
lfemur -8.848515849410612 1.3186935226510574 -22.755104164483367
ltibia 36.514546656647624
lfoot 2.7486665036373683 -10.973994983836528
ltoes -5.440885082771661
rfemur -27.442722432341853 3.942272245012565 25.408170136535983
rtibia 45.178606649621614
rfoot -3.300792160771711 -3.5252259386602343
rtoes 1.5056116016531504
lowerback 11.931029191498846 -0.7375397271301403 -1.5927296413723877
upperback -1.1006348521015346 -0.45016485562126407 1.6421895202794645
thorax -8.37530065479599 0.04324183757854394 2.0382129308271266
lowerneck -19.561747226143943 -3.230960454588933 -1.9564751095126625
upperneck 10.488274427177952 -4.944753442739851 2.9304017655143277
head 6.534544869476033 -2.156092424256255 0.7987562919299631
lclavicle 4.2874894013840705e-15 5.758947334063212e-17
lhumerus -43.81500531584636 -14.460865464725158 96.3249888294906
lradius 110.09400197207395
lwrist 28.81056271206069
lhand -29.340315305826092 2.8389069870540036
lfingers 7.125019999999998
lthumb -3.034920956594654 32.72921057782509
rclavicle 4.287456057901627e-15 5.756553917791964e-17
rhumerus -53.10438456456064 13.06739355231468 -99.88900337237796
rradius 104.90889308300844
rwrist -8.94350654746556
rhand -20.452727137071346 36.6043856038155
rfingers 7.125019999999998
rthumb 5.824308189998786 6.56599645608377
76
root 0.9270075681854117 18.196433273466603 40.610636856863216 3.211900406177271 -0.38382999455472455 0.6170664182718797
lfemur -8.91629695022334 1.700866877516242 -22.42903742727001
ltibia 40.48076914458367
lfoot 2.4837637505301684 -11.519141432315516
ltoes -4.940363947447205
rfemur -28.260047470785906 3.86792254705285 25.06012668272854
rtibia 41.85438071618832
rfoot -3.683916355032332 -3.580124634588501
rtoes 1.0929861550455269
lowerback 11.895541434840075 -0.7602290101011422 -1.4957314246769184
upperback -1.0709933750872036 -0.47522198694434303 1.6898139093708098
thorax -8.4403725356318 -0.032874177366276736 1.938945291433497
lowerneck -19.684244963458884 -3.2413311546738255 -1.9626108762347152
upperneck 10.343690637691726 -5.016561341033047 2.920077813996497
head 6.522510468695802 -2.1571568598213386 0.7851925226604716
lclavicle 4.2874894013840705e-15 5.758947334063212e-17
lhumerus -42.40353319576665 -13.958969020935944 96.70984793531768
lradius 110.27467604309754
lwrist 28.83976708551153
lhand -29.47075796244386 2.7660181829610817
lfingers 7.125019999999998
lthumb -2.993392405621995 32.755974046475565
rclavicle 4.287456057901627e-15 5.756553917791964e-17
rhumerus -53.534501900083335 12.780728974706001 -99.55716217379121
rradius 104.88405232171374
rwrist -8.995839332880236
rhand -20.479541077191328 36.623913405156465
rfingers 7.125019999999998
rthumb 5.914941852495539 6.6067776978223
77
root 0.9970252997185225 18.268214838669948 42.33905024201113 3.3341100236195573 -0.2973952015481065 0.8949741435667224
lfemur -9.209534597956488 2.301207742501453 -21.588809223656067
ltibia 45.26479913966365
lfoot 2.228518033736848 -11.65970639102316
ltoes -4.728536895591776
rfemur -27.34656914086047 3.7540437289472584 25.242607241179055
rtibia 39.2755996110299
rfoot -4.038862936968311 -3.926650844459039
rtoes 1.033227883780161
lowerback 11.839530689567546 -0.8335525519121809 -1.5649184616656886
upperback -1.0030731198111327 -0.4154362979505377 1.707145827353551
thorax -8.30739207692252 0.10430510214908872 2.21486778333098
lowerneck -19.8387664385727 -3.294048717657575 -1.9925993394532322
upperneck 10.277922999510894 -5.0281394605617225 2.956724108850183
head 6.508760642005055 -2.1634422550456742 0.7746655052489132
lclavicle 4.2874894013840705e-15 5.758947334063212e-17
lhumerus -42.309073545849635 -14.07273346416084 96.8434637281565
lradius 110.48131651923617
lwrist 28.691437542815216
lhand -29.663058410193514 2.65798436523796
lfingers 7.125019999999998
lthumb -2.940604865601568 32.772596871440825
rclavicle 4.287456057901627e-15 5.756553917791964e-17
rhumerus -53.75071229950151 12.464373752636932 -99.21526201169334
rradius 104.85914595043431
rwrist -9.138973594454326
rhand -20.43133434935577 36.656516902863714
rfingers 7.125019999999998
rthumb 5.818261032809708 6.492032270697154
78
root 1.0231968409622587 18.26455194201231 41.89248220617463 3.2192802865709105 -0.4946527223531735 0.9663791734257923
lfemur -10.393639975399726 2.40502780110102 -21.65445964732331
ltibia 50.612045156531806
lfoot 3.03860229059097 -11.126564339974477
ltoes -4.077238375902661
rfemur -26.998297811694783 3.4744599958229663 25.179418885631296
rtibia 37.99102623557698
rfoot -3.7813035951917278 -4.125716708738754
rtoes 1.1372880893971995
lowerback 11.969565880321415 -0.7906981897267482 -1.395446995401825
upperback -0.8869895443451636 -0.2770178546853108 1.7305423733542988
thorax -8.357289189280921 0.060391382610289535 2.0359154500025896
lowerneck -19.891809408053497 -3.2880649591076727 -1.9612434841869375
upperneck 10.164938436518424 -5.057095925954819 2.962862132010369
head 6.464355176508719 -2.1946502955215497 0.7547236120329683
lclavicle 4.2874894013840705e-15 5.758947334063212e-17
lhumerus -42.31659191379059 -13.820143075784944 96.89963215326671
lradius 110.4795837830597
lwrist 28.501941219571695
lhand -29.669516213297605 2.751038045302602
lfingers 7.125019999999998
lthumb -2.8674247668686643 32.789624610259295
rclavicle 4.287456057901627e-15 5.756553917791964e-17
rhumerus -53.843749694892054 12.15020751262163 -98.92126534424109
rradius 104.82831604607475
rwrist -9.314298803371475
rhand -20.461224683703392 36.60098061478685
rfingers 7.125019999999998
rthumb 5.877790559821945 6.511600811382019
79
root 1.061972050506763 18.2724111249672 43.31639668943011 3.1291647970081495 -0.3235784341783983 1.2698976689456916
lfemur -11.951480745480218 2.4835875353784687 -21.30717928857904
ltibia 56.10060737011712
lfoot 3.914742827911917 -10.521944721938949
ltoes -4.008991125319726
rfemur -25.260054128116224 3.6653610210953333 26.045298462508583
rtibia 37.65898585870795
rfoot -3.5286603392669407 -4.333709453520101
rtoes 1.3612953120428974
lowerback 12.077381132337205 -0.7706664894460686 -1.3202879359116617
upperback -0.7592066081531643 -0.10125383377119412 1.753753882996625
thorax -8.302543571215114 0.12523067303487256 2.01284747515094
lowerneck -20.04685352289501 -3.362427756931725 -1.9644762458242941
upperneck 10.05117024446138 -5.119904815584083 2.9427228943863475
head 6.490388493353361 -2.165887674087182 0.7661002818901589
lclavicle 4.2874894013840705e-15 5.758947334063212e-17
lhumerus -42.7544728785385 -13.737521276363601 96.91432397832817
lradius 110.60439798443814
lwrist 28.50154591800451
lhand -29.731670515067442 2.802685923544634
lfingers 7.125019999999998
lthumb -2.7616026204719697 32.8365879950695
rclavicle 4.287456057901627e-15 5.756553917791964e-17
rhumerus -53.59608887832674 11.87215432109354 -98.63536661265351
rradius 104.85380196459522
rwrist -9.347800361604415
rhand -20.395377697381768 36.628487252536736
rfingers 7.125019999999998
rthumb 5.73998108065865 6.353475210145968
